<?xml version="1.0" encoding="utf-8"?>
<!-- Svg Vector Icons : http://www.onlinewebfonts.com/icon -->
<!DOCTYPE svg PUBLIC "-//W3C//DTD SVG 1.1//EN" "http://www.w3.org/Graphics/SVG/1.1/DTD/svg11.dtd">
<svg version="1.1" xmlns="http://www.w3.org/2000/svg" xmlns:xlink="http://www.w3.org/1999/xlink" x="0px" y="0px" viewBox="0 0 1000 1000" enable-background="new 0 0 1000 1000" xml:space="preserve">
<metadata> Svg Vector Icons : http://www.onlinewebfonts.com/icon </metadata>
<g><path d="M867.5,163.2H683.8v-61.2c0-33.8-27.5-61.2-61.2-61.2h-245c-33.8,0-61.2,27.5-61.2,61.2v61.2H132.5C64.8,163.2,10,218,10,285.6v551.2c0,67.7,54.8,122.5,122.5,122.5h735c67.7,0,122.5-54.8,122.5-122.5V285.6C990,218.1,935.2,163.2,867.5,163.2z M377.6,132.5c0-16.9,13.7-30.6,30.6-30.6h183.7c16.9,0,30.6,13.7,30.6,30.6v30.6h-245V132.5z M928.8,836.9c0,33.8-27.5,61.2-61.2,61.2h-735c-33.8,0-61.2-27.5-61.2-61.2V500.1h310.5c-2.5,9.9-4.3,20-4.3,30.6c0,67.7,54.8,122.5,122.5,122.5s122.6-54.8,122.6-122.5c0-10.6-1.8-20.8-4.3-30.6h310.5V836.9z M438.8,530.7c0-11.3,3.3-21.6,8.5-30.6h105.5c5.3,9,8.5,19.4,8.5,30.6c0,33.8-27.5,61.2-61.2,61.2C466.2,592,438.8,564.5,438.8,530.7z M928.8,438.9H71.2V285.6c0-33.8,27.5-61.2,61.2-61.2h735c33.8,0,61.2,27.5,61.2,61.2V438.9z"/></g>
</svg>